<?xml version="1.0" encoding="iso-8859-1"?>
<!-- Generator: Adobe Illustrator 19.0.0, SVG Export Plug-In . SVG Version: 6.00 Build 0)  -->
<svg version="1.1" id="Capa_1" xmlns="http://www.w3.org/2000/svg" xmlns:xlink="http://www.w3.org/1999/xlink" x="0px" y="0px"
	 viewBox="0 0 511.998 511.998" style="enable-background:new 0 0 511.998 511.998;" xml:space="preserve">
<g>
	<g>
		<path d="M409.109,434.837L225.243,251.144c2.202-0.626,4.413-1.273,6.635-1.94c2.411-0.725,4.298-2.611,5.023-5.022
			c0.67-2.226,1.309-4.423,1.933-6.606l12.506,12.492c1.465,1.463,3.383,2.194,5.301,2.194c1.921,0,3.842-0.733,5.307-2.2
			c2.927-2.93,2.924-7.679-0.006-10.607l-18.662-18.642c26.012-106.483-5.095-158.317-27.089-180.29
			c-15.524-15.511-34.894-25.291-54.541-27.538c-20.885-2.388-40.15,4.05-54.243,18.132c-22.689,22.668-24.544,50.38-23.565,65.148
			c-14.78-0.977-42.518,0.875-65.203,23.541C4.542,133.89-1.904,153.141,0.489,174.013c2.249,19.633,12.039,38.988,27.566,54.501
			c4.249,4.244,8.954,8.199,13.986,11.753c3.383,2.392,8.063,1.584,10.453-1.798c2.39-3.383,1.585-8.063-1.799-10.453
			c-4.34-3.066-8.39-6.469-12.039-10.114c-13.138-13.126-21.399-29.319-23.265-45.596c-1.86-16.23,3.059-31.107,13.85-41.888
			c22.572-22.552,51.476-19.858,59.791-18.495c2.886,0.474,5.848-0.479,7.918-2.549c2.069-2.069,3.023-5.028,2.551-7.919
			c-1.364-8.31-4.06-37.178,18.509-59.726c22.281-22.261,59.934-18.217,87.581,9.406c19.971,19.953,48.11,67.913,22.235,169.703
			c-0.089,0.282-0.167,0.566-0.222,0.855c-1.193,4.653-2.491,9.412-3.916,14.291c-58.43,16.995-108.957,18.96-146.331,5.657
			c-3.898-1.389-8.191,0.649-9.58,4.551c-1.39,3.902,0.648,8.192,4.551,9.581c17.908,6.375,38.443,9.552,61.125,9.551
			c22.965,0,48.136-3.273,74.986-9.767l190.068,189.892c1.464,1.463,3.383,2.194,5.301,2.194c1.921,0,3.841-0.733,5.306-2.199
			C412.042,442.514,412.04,437.765,409.109,434.837z"/>
	</g>
</g>
<g>
	<g>
		<path d="M511.998,403.635c0-3.072-1.197-5.96-3.371-8.131l-18.551-18.535c-4.482-4.481-11.777-4.483-16.26-0.001l-15.315,15.301
			l-13.598-13.586l15.305-15.291c2.174-2.172,3.371-5.06,3.371-8.133c0-3.072-1.197-5.96-3.371-8.131l-18.551-18.535
			c-4.483-4.48-11.777-4.482-16.261-0.001l-37.11,37.077L284.578,262.07c-2.932-2.928-7.681-2.925-10.606,0.006
			c-2.928,2.93-2.926,7.679,0.005,10.607l196.912,196.705l-13.601,13.587l-25.559-25.535c-2.93-2.928-7.679-2.925-10.606,0.005
			s-2.926,7.679,0.005,10.607l28.307,28.281c2.116,2.115,4.909,3.168,7.736,3.167c2.959,0,5.955-1.152,8.248-3.444l18.535-18.516
			c2.204-2.19,3.472-5.195,3.477-8.244c0.005-2.949-1.124-5.705-3.182-7.763l-12.716-12.703l37.094-37.061
			C510.801,409.596,511.998,406.708,511.998,403.635z M460.922,438.226l-62.017-61.962l34.621-34.59l13.598,13.586l-16.718,16.703
			c-1.797,1.794-2.786,4.181-2.786,6.72c0,2.538,0.989,4.924,2.784,6.718h0.001l21.382,21.363c3.704,3.701,9.73,3.698,13.429-0.001
			l16.73-16.713l13.598,13.586L460.922,438.226z"/>
	</g>
</g>
<g>
	<g>
		<path d="M194.985,61.743c-12.064-12.052-27.687-19.248-41.792-19.248c-9.638,0-18.138,3.403-24.582,9.842
			c-17.515,17.496-15.385,40.15-14.313,46.681c1.151,6.995-0.82,14.106-5.408,19.51c-4.592,5.408-11.292,8.51-18.382,8.51
			c-1.3,0-2.614-0.107-3.902-0.317c-1.506-0.247-4.652-0.66-8.814-0.66c-15.243,0-28.011,5.034-37.949,14.964
			c-7.596,7.588-10.898,17.815-9.551,29.576c1.46,12.738,8.373,26.113,18.967,36.697c18.407,18.392,47.568,28.113,84.328,28.113
			c22.128,0,46.918-3.518,73.681-10.456c2.638-0.684,4.696-2.744,5.379-5.381C231.234,147.744,224.961,91.691,194.985,61.743z
			 M199.208,211.52c-23.88,5.9-45.939,8.889-65.622,8.889c-32.698,0-58.193-8.204-73.727-23.725
			c-8.239-8.231-13.585-18.361-14.666-27.792c-0.831-7.253,0.887-12.897,5.25-17.257c7.023-7.017,16.225-10.575,27.348-10.575
			c3.216,0,5.54,0.324,6.394,0.463c2.088,0.341,4.215,0.514,6.323,0.514c11.501,0.001,22.369-5.029,29.815-13.8
			c7.445-8.768,10.644-20.306,8.776-31.651c-0.778-4.744-2.348-21.191,10.112-33.64c3.673-3.67,8.246-5.453,13.98-5.453
			c10.218,0,21.878,5.555,31.191,14.859C209.503,97.45,214.845,148.023,199.208,211.52z"/>
	</g>
</g>
<g>
</g>
<g>
</g>
<g>
</g>
<g>
</g>
<g>
</g>
<g>
</g>
<g>
</g>
<g>
</g>
<g>
</g>
<g>
</g>
<g>
</g>
<g>
</g>
<g>
</g>
<g>
</g>
<g>
</g>
</svg>
